<svg width="16" height="16" viewBox="0 0 16 16" fill="none" xmlns="http://www.w3.org/2000/svg">
<path d="M13.2393 3.27959H12.8282V2.36435C12.8282 1.06114 11.767 0 10.4638 0H5.49966C4.19645 0 3.13531 1.06114 3.13531 2.36435V3.27959H2.76059C1.45738 3.27959 0.39624 4.34073 0.39624 5.64394V9.45741C0.39624 10.7606 1.45738 11.8218 2.76059 11.8218H3.13199V14.8195C3.13199 15.4694 3.66256 16 4.31251 16H11.6443C12.2943 16 12.8248 15.4694 12.8248 14.8195V11.8218H13.2393C14.5426 11.8218 15.6037 10.7606 15.6037 9.45741V5.64394C15.6037 4.34073 14.5426 3.27959 13.2393 3.27959ZM4.02733 2.36435C4.02733 1.55523 4.68722 0.895337 5.49634 0.895337H10.4572C11.2663 0.895337 11.9262 1.55523 11.9262 2.36435V3.27959H4.02733V2.36435ZM11.9295 14.8261C11.9295 14.982 11.8002 15.1113 11.6443 15.1113H4.31251C4.15666 15.1113 4.02733 14.982 4.02733 14.8261V9.88187H11.9295V14.8261ZM14.7084 9.46073C14.7084 10.2698 14.0485 10.9297 13.2393 10.9297H12.8282V9.88187H13.4184C13.6671 9.88187 13.8661 9.6829 13.8661 9.4342C13.8661 9.18549 13.6671 8.98653 13.4184 8.98653H2.47541C2.22671 8.98653 2.02774 9.18549 2.02774 9.4342C2.02774 9.6829 2.22671 9.88187 2.47541 9.88187H3.13531V10.9297H2.76059C1.95147 10.9297 1.29158 10.2698 1.29158 9.46073V5.64725C1.29158 4.83814 1.95147 4.17824 2.76059 4.17824H13.2393C14.0485 4.17824 14.7084 4.83814 14.7084 5.64725V9.46073Z" fill="#003399"/>
<path d="M5.11161 12.0837H10.8119C11.0606 12.0837 11.2596 11.8847 11.2596 11.636C11.2596 11.3873 11.0606 11.1884 10.8119 11.1884H5.11161C4.8629 11.1884 4.66394 11.3873 4.66394 11.636C4.66394 11.8847 4.86622 12.0837 5.11161 12.0837Z" fill="#003399"/>
<path d="M10.8484 13.0189H5.14481C4.89611 13.0189 4.69714 13.2179 4.69714 13.4666C4.69714 13.7153 4.89611 13.9143 5.14481 13.9143H10.8451C11.0938 13.9143 11.2928 13.7153 11.2928 13.4666C11.2928 13.2179 11.0938 13.0189 10.8484 13.0189Z" fill="#003399"/>
<path d="M13.2293 5.03705H12.3207C12.072 5.03705 11.873 5.23601 11.873 5.48472C11.873 5.73342 12.072 5.93238 12.3207 5.93238H13.2293C13.478 5.93238 13.677 5.73342 13.677 5.48472C13.677 5.23601 13.478 5.03705 13.2293 5.03705Z" fill="#003399"/>
</svg>
