<svg width="16" height="16" viewBox="0 0 16 16" fill="none" xmlns="http://www.w3.org/2000/svg">
<g clip-path="url(#clip0)">
<path d="M15.5246 4.26058L15.5245 4.26056L11.4483 0.0249704L11.4483 0.0249405C11.3714 -0.0548673 11.2654 -0.1 11.1545 -0.1H5.07924C4.34414 -0.1 3.74617 0.497671 3.74617 1.23256V5.43847H1.38408C0.82019 5.43847 0.361548 5.89693 0.361548 6.46075V11.0778C0.361548 11.6415 0.820192 12.1 1.38408 12.1H3.74617V14.7696C3.74617 15.5035 4.3443 16.1 5.07924 16.1H14.3054C15.0403 16.1 15.6385 15.5038 15.6385 14.7703V4.54328C15.6385 4.43784 15.5976 4.33653 15.5246 4.26058ZM14.342 4.20769H11.3308V1.07878L14.342 4.20769ZM1.38408 11.2846C1.26986 11.2846 1.17695 11.1917 1.17695 11.0778V6.46075C1.17695 6.34683 1.2699 6.25384 1.38408 6.25384H9.69289C9.8071 6.25384 9.90002 6.34682 9.90002 6.46075V11.0778C9.90002 11.1917 9.80709 11.2846 9.69289 11.2846H1.38408ZM14.8231 14.7703C14.8231 15.0533 14.5913 15.2846 14.3054 15.2846H5.07924C4.79346 15.2846 4.56155 15.0531 4.56155 14.7696V12.1H9.69289C10.2568 12.1 10.7154 11.6415 10.7154 11.0778V6.46075C10.7154 5.89693 10.2568 5.43847 9.69289 5.43847H4.56155V1.23256C4.56155 0.947526 4.79379 0.715375 5.07924 0.715375H10.5154V4.61538C10.5154 4.84055 10.698 5.02306 10.9231 5.02306H14.8231V14.7703Z" fill="#003399" stroke="#003399" stroke-width="0.2"/>
<path d="M2.90233 10.1538V9.25683L3.7038 9.11895C3.79755 9.09851 3.8898 9.05676 3.98055 8.99364L4.03763 9.07574C4.03764 9.07574 4.03764 9.07574 4.03765 9.07573C4.14307 9.00243 4.22792 8.90282 4.29327 8.78016C4.36183 8.65147 4.39336 8.49783 4.39336 8.32389V8.32388C4.39332 8.09721 4.33805 7.90255 4.21934 7.74821C4.10475 7.59922 3.9596 7.49951 3.78528 7.45379C3.67159 7.42338 3.44642 7.4108 3.12505 7.4108H2.26868H2.16868V7.5108V10.1538V10.2538H2.26868H2.80233H2.90233V10.1538ZM3.09439 8.60792H2.90233V8.05793H3.06014C3.25399 8.05793 3.37261 8.06421 3.42558 8.07422L3.42558 8.07422L3.42637 8.07437C3.49218 8.08625 3.54352 8.11486 3.58447 8.16018L3.58449 8.1602C3.62202 8.20172 3.64342 8.25602 3.64342 8.33111V8.33115C3.64345 8.39108 3.62831 8.43949 3.60048 8.48022C3.57238 8.52134 3.53347 8.55242 3.47994 8.57328C3.45739 8.58208 3.41539 8.5914 3.34783 8.59804C3.28192 8.60451 3.19771 8.60792 3.09439 8.60792Z" fill="#003399" stroke="#003399" stroke-width="0.2"/>
<path d="M6.58105 9.88698L6.65071 9.95873C6.78652 9.8269 6.88842 9.65692 6.95868 9.45256L6.95869 9.45253C7.01729 9.28196 7.04524 9.08293 7.04524 8.85755C7.04524 8.60289 7.01567 8.38298 6.95334 8.20054C6.89152 8.01956 6.80036 7.86399 6.67887 7.73587C6.5561 7.6064 6.40794 7.51598 6.23614 7.46535L6.23587 7.46527C6.10677 7.42761 5.92781 7.4108 5.70487 7.4108H4.72949H4.62949V7.5108V10.1538V10.2538H4.72949H5.73371C5.93574 10.2538 6.10465 10.2349 6.23623 10.1933L6.23658 10.1931C6.40478 10.1392 6.54456 10.0621 6.65084 9.9586L6.58105 9.88698ZM6.58105 9.88698C6.48852 9.97713 6.36352 10.0474 6.20605 10.0979C6.08827 10.1352 5.93084 10.1538 5.73371 10.1538H4.82949H4.72949V10.0538V7.6108V7.5108H4.82949H5.70487C5.9248 7.5108 6.09249 7.52762 6.20787 7.56127C6.3629 7.60696 6.49574 7.68808 6.60631 7.80468C6.71687 7.92127 6.80102 8.06399 6.85871 8.23286C6.9164 8.40174 6.94524 8.60995 6.94524 8.85755C6.94524 9.07508 6.91821 9.26257 6.86412 9.42004C6.79799 9.61235 6.70365 9.76798 6.58105 9.88698ZM6.13265 9.49914L6.13263 9.49916C6.08953 9.53818 6.03317 9.56797 5.96006 9.58624L5.95961 9.58636C5.90653 9.59988 5.80973 9.60851 5.66159 9.60851H5.36315V8.05793H5.50293C5.72196 8.05793 5.85704 8.06671 5.91897 8.08071L5.91897 8.08072L5.91984 8.08091C6.00438 8.09923 6.06951 8.13319 6.11935 8.18028C6.1692 8.22736 6.21216 8.29684 6.24449 8.39489C6.27559 8.48922 6.29355 8.63355 6.29355 8.83414C6.29355 9.03411 6.27573 9.18424 6.2438 9.28906C6.21011 9.39967 6.17049 9.46491 6.13265 9.49914Z" fill="#003399" stroke="#003399" stroke-width="0.2"/>
<path d="M9.21326 8.05793H9.31326V7.95793V7.5108V7.4108H9.21326H7.40137H7.30137V7.5108V10.1538V10.2538H7.40137H7.93502H8.03502V10.1538V9.13064H9.03838H9.13838V9.03064V8.58352V8.48352H9.03838H8.03502V8.05793H9.21326Z" fill="#003399" stroke="#003399" stroke-width="0.2"/>
</g>
<defs>
<clipPath id="clip0">
<rect width="16" height="16" fill="white"/>
</clipPath>
</defs>
</svg>
