<svg width="9" height="9" viewBox="0 0 9 9" fill="none" xmlns="http://www.w3.org/2000/svg">
<g clip-path="url(#clip0)">
<path d="M8.12575 1.22105L8.12574 1.22106L2.84053 6.50632L0.874279 4.54008C0.874278 4.54007 0.874276 4.54007 0.874274 4.54007C0.639953 4.30573 0.26008 4.30578 0.0257541 4.54006L0.0257488 4.54006C-0.208586 4.77438 -0.208578 5.15426 0.0257435 5.38858L0.0257443 5.38858L2.41625 7.77905C2.41625 7.77906 2.41626 7.77906 2.41626 7.77907C2.65056 8.01342 3.03065 8.01321 3.26479 7.77907L8.97427 2.06959C9.20861 1.83527 9.20857 1.45538 8.97428 1.22106C8.73996 0.986724 8.36008 0.986739 8.12575 1.22105Z" fill="#99C945" stroke="#99C945" stroke-width="0.3"/>
</g>
<defs>
<clipPath id="clip0">
<rect width="9" height="9" fill="white" transform="matrix(-1 0 0 1 9 0)"/>
</clipPath>
</defs>
</svg>
