<svg width="9" height="9" viewBox="0 0 9 9" fill="none" xmlns="http://www.w3.org/2000/svg">
<g clip-path="url(#clip0)">
<path d="M5.29595 4.50088L8.83509 0.961745C9.05497 0.74205 9.05497 0.385584 8.83509 0.165889C8.6152 -0.0539942 8.25912 -0.0539942 8.03923 0.165889L4.50009 3.70503L0.960768 0.165889C0.740885 -0.0539942 0.384795 -0.0539942 0.164912 0.165889C-0.0549707 0.385584 -0.0549707 0.74205 0.164912 0.961745L3.70424 4.50088L0.164912 8.04002C-0.0549707 8.25972 -0.0549707 8.61618 0.164912 8.83588C0.274854 8.94563 0.418941 9.0006 0.56284 9.0006C0.706739 9.0006 0.850827 8.94563 0.960768 8.83569L4.50009 5.29655L8.03923 8.83569C8.14917 8.94563 8.29326 9.0006 8.43716 9.0006C8.58106 9.0006 8.72515 8.94563 8.83509 8.83569C9.05497 8.616 9.05497 8.25953 8.83509 8.03983L5.29595 4.50088Z" fill="#414141"/>
</g>
<defs>
<clipPath id="clip0">
<rect width="9" height="9" fill="white"/>
</clipPath>
</defs>
</svg>
