<svg width="13" height="13" viewBox="0 0 13 13" fill="none" xmlns="http://www.w3.org/2000/svg">
<path d="M12.9938 10.2564C13.0213 10.4674 12.957 10.6509 12.8011 10.8069L10.9708 12.6234C10.8882 12.7151 10.7804 12.7932 10.6474 12.8574C10.5143 12.9216 10.3836 12.9629 10.2552 12.9812C10.246 12.9812 10.2184 12.9836 10.1725 12.9882C10.1267 12.9927 10.0671 12.9951 9.9937 12.9951C9.81934 12.9951 9.53719 12.9652 9.14726 12.9056C8.75733 12.8459 8.28027 12.6991 7.71606 12.4652C7.15172 12.2312 6.51181 11.8803 5.7962 11.4124C5.08058 10.9445 4.31905 10.3023 3.51167 9.48568C2.86944 8.85262 2.3373 8.24709 1.91526 7.6691C1.49322 7.09106 1.15375 6.55663 0.896858 6.06578C0.639941 5.57493 0.447271 5.12995 0.318824 4.73085C0.190377 4.33175 0.103216 3.98769 0.0573424 3.69869C0.0114685 3.40968 -0.00688109 3.1826 0.0022937 3.01746C0.0114685 2.85231 0.0160559 2.76056 0.0160559 2.74221C0.0344055 2.61377 0.075692 2.48303 0.139916 2.34999C0.204139 2.21696 0.282125 2.10915 0.373873 2.02658L2.20424 0.196211C2.33269 0.0677635 2.47949 0.00354004 2.64463 0.00354004C2.7639 0.00354004 2.86942 0.0379455 2.96116 0.106756C3.05291 0.175567 3.1309 0.260434 3.19512 0.361357L4.66767 3.15508C4.75025 3.30188 4.77318 3.46243 4.73648 3.63676C4.69979 3.81108 4.6218 3.95787 4.50253 4.07715L3.82818 4.75149C3.80983 4.76984 3.79377 4.79966 3.78001 4.84095C3.76625 4.88223 3.75937 4.91664 3.75937 4.94416C3.79607 5.13683 3.87864 5.35703 4.00709 5.60475C4.11719 5.82494 4.28692 6.09331 4.51629 6.40984C4.74566 6.72637 5.07136 7.09104 5.4934 7.50391C5.90627 7.92599 6.27326 8.25395 6.59438 8.48795C6.91543 8.72181 7.18388 8.89391 7.39949 9.00401C7.6151 9.1141 7.78024 9.18062 7.89491 9.20349L8.06689 9.23792C8.08524 9.23792 8.11512 9.23102 8.15636 9.21728C8.19765 9.20349 8.22747 9.18746 8.24584 9.16909L9.03026 8.37088C9.1955 8.2241 9.38808 8.15071 9.6083 8.15071C9.76431 8.15071 9.88811 8.17821 9.97985 8.23328H9.99359L12.6497 9.80217C12.8424 9.92153 12.9571 10.0729 12.9938 10.2564Z" fill="#99C945"/>
</svg>
