<?xml version="1.0" encoding="utf-8"?>
<!-- Generator: Adobe Illustrator 21.0.0, SVG Export Plug-In . SVG Version: 6.00 Build 0)  -->
<svg version="1.1" id="Слой_1" xmlns="http://www.w3.org/2000/svg" xmlns:xlink="http://www.w3.org/1999/xlink" x="0px" y="0px"
	 width="36px" height="35.001px" viewBox="0 0 36 35.001" style="enable-background:new 0 0 36 35.001;" xml:space="preserve">
<style type="text/css">
	.st0{fill:#FFFFFF;stroke:#FFFFFF;stroke-width:2;stroke-linecap:round;stroke-linejoin:round;stroke-miterlimit:10;}
	.st1{fill:none;stroke:#FFFFFF;stroke-width:2;stroke-linecap:round;stroke-linejoin:round;stroke-miterlimit:10;}
	.st2{fill:#FFFFFF;}
</style>
<g>
	<g>
		<path class="st0" d="M6,10h29l-3.75,15H9L6,10z"/>
		<path class="st1" d="M1,1h2.682l2.491,9.865"/>
	</g>
	<g>
		<path class="st2" d="M16.25,32.063c0,1.622-1.315,2.938-2.938,2.938c-1.622,0-2.937-1.315-2.937-2.938s1.315-2.938,2.937-2.938
			C14.935,29.125,16.25,30.44,16.25,32.063z"/>
		<path class="st2" d="M29.25,32.063c0,1.622-1.315,2.938-2.938,2.938c-1.622,0-2.937-1.315-2.937-2.938s1.315-2.938,2.937-2.938
			C27.935,29.125,29.25,30.44,29.25,32.063z"/>
	</g>
</g>
</svg>
